<svg width="512" height="512" viewBox="0 0 512 512" fill="none" xmlns="http://www.w3.org/2000/svg">
  <rect width="512" height="512" rx="144" fill="url(#bg)"/>
  <rect x="28" y="28" width="456" height="456" rx="116" stroke="url(#border)" stroke-width="10" fill="none"/>
  <path d="M176 150H243C301.542 150 337 181.281 337 233.5C337 282.899 304.235 315.44 249.546 316.91L227.273 317.5H215V392H176V150ZM215 184V284H244.545C286.482 284 298 257.615 298 233.5C298 208.742 285.713 184 243 184H215Z" fill="#1D1814"/>
  <path d="M276 318.5L352.5 392H302.383L241 332.761L276 318.5Z" fill="#1D1814"/>
  <path d="M154 402C196.536 366.803 233.624 347.035 265.265 342.697C301.558 337.72 337.016 350.093 371.638 379.815" stroke="#F8EFE5" stroke-width="18" stroke-linecap="round" opacity="0.82"/>
  <circle cx="383" cy="133" r="33" fill="#F8EFE5" fill-opacity="0.9"/>
  <path d="M367 133.5C377.168 118.634 389.166 118.634 399.334 133.5C389.166 148.366 377.168 148.366 367 133.5Z" fill="#8C6B4A"/>
  <defs>
    <linearGradient id="bg" x1="58" y1="42" x2="446" y2="472" gradientUnits="userSpaceOnUse">
      <stop stop-color="#FFF8F0"/>
      <stop offset="0.48" stop-color="#EEDBC6"/>
      <stop offset="1" stop-color="#C59B72"/>
    </linearGradient>
    <linearGradient id="border" x1="64" y1="48" x2="456" y2="464" gradientUnits="userSpaceOnUse">
      <stop stop-color="#FFFDFB" stop-opacity="0.9"/>
      <stop offset="1" stop-color="#9F7751" stop-opacity="0.7"/>
    </linearGradient>
  </defs>
</svg>
